<svg xmlns="http://www.w3.org/2000/svg" width="150" height="300" viewBox="0 0 150 300">
  <g>
    <path d="M73.986 20V0h20.372v20zm4.94-4.234H89.42V4.241H78.926zM64.354 20l-5.061-6.179L54.235 20H47.99l8.178-9.99L47.974 0h6.251l5.068 6.2L64.364 0h6.249l-8.2 10.01L70.6 20zm51.972 0L104.62 7.909V20h-4.94V0h3.728l11.702 12.1V0h4.94v20zM25.7 20V0h18.879v4.241H30.642v3.426h13.937v4.261H30.642v3.833h13.937V20zm-9.049 0L4.94 7.909V20H0V0h3.734l11.705 12.1V0h4.933v20z"/>
  </g>
  <g transform="translate(0 50)">
    <g transform="translate(-245.4 -58.073)">
      <path d="M245.4 133.062v6.39l8.481-4.509z" fill="#008dd5" transform="translate(1 -64.711)"/>
      <path d="M253.881 60.073l-8.481 4.51v5.768l8.481 1.881z" fill="#00294d" transform="translate(1 -2)"/>
      <path d="M253.881 146.419l-8.481 4.509 10.518 2.332 8.481-4.509z" fill="#c2cf17" transform="translate(1 -76.187)"/>
    </g>
  </g>
  <g transform="translate(0 100)">
    <path fill="#1878f2" stroke="none" stroke-miterlimit="10" transform="translate(1 1)" d="M9.441 18H1a1 1 0 0 1-1-1V1a1 1 0 0 1 1-1h16a1 1 0 0 1 1 1v16a1 1 0 0 1-1 1h-4.75v-6.98h2.343l.35-2.72H12.25V6.565c0-.795.229-1.324 1.347-1.324h1.441V2.807a19.078 19.078 0 0 0-2.1-.107 3.5 3.5 0 0 0-2.528.925A3.649 3.649 0 0 0 9.441 6.3v2H7.093v2.72h2.348V18z"/>
  </g>
  <g transform="translate(0 150)">
    <g transform="translate(-157.379 -10.16)">
      <path fill="#4285f4" d="M175.8 17.524h-9.421v3.869h5.383a4.6 4.6 0 0 1-2 3.02l3.238 2.51a9.756 9.756 0 0 0 2.983-7.352 11.431 11.431 0 0 0-.183-2.047z" transform="translate(.997 .814)"/>
      <path d="M167.276 24.995a5.962 5.962 0 0 1-5.6-4.125l-3.342 2.592a10 10 0 0 0 8.94 5.511 9.551 9.551 0 0 0 6.62-2.423l-3.232-2.51a6.014 6.014 0 0 1-3.386.955z" fill="#34a853" transform="translate(.107 1.187)"/>
      <path d="M161.471 19.611a6.014 6.014 0 0 1 .313-1.9l-3.342-2.592a10.02 10.02 0 0 0 0 8.985l3.342-2.592a6.014 6.014 0 0 1-.313-1.901z" fill="#fbbc05" transform="translate(0 .549)"/>
      <path d="M167.272 14.139a5.4 5.4 0 0 1 3.822 1.5l2.869-2.87a9.61 9.61 0 0 0-6.691-2.605 10 10 0 0 0-8.936 5.511l3.341 2.592a5.96 5.96 0 0 1 5.595-4.128z" fill="#ea4335" transform="translate(.107)"/>
    </g>
  </g>
  <g transform="translate(0 200)">
    <path d="M1112.247 249.92a7.918 7.918 0 0 1 .856-.017h16.153a.544.544 0 0 1 .456.153c.217.216.14.542.154.815q-.009 8.251 0 16.5a.533.533 0 0 1-.607.52h-16.856a.507.507 0 0 1-.526-.518v-16.946a.5.5 0 0 1 .37-.507zm3.69 4.472c.007 3 0 6 0 9.005 1.124.007 2.25 0 3.373 0 .017-1.488-.021-2.978.02-4.466.369.515.705 1.053 1.082 1.563.629.977 1.342 1.9 1.947 2.893 1.132.03 2.264 0 3.4.017.012-.141.024-.281.024-.423-.016-2.865.013-5.73-.016-8.594-1.12-.009-2.239 0-3.358 0-.009 1.5.009 2.994-.01 4.489-1.04-1.48-2.023-3-3.087-4.464-1.123-.054-2.252-.018-3.376-.02z" fill="#00c63b" transform="translate(-1110.872 -248.896)"/>
  </g>
  <g transform="translate(0 250)">
    <g transform="translate(1.5)">
      <path d="M53.535 115.918a4.577 4.577 0 0 1-.829-2.68 4.283 4.283 0 0 1 .781-2.488 7.788 7.788 0 0 1 1.37-1.418 6.2 6.2 0 0 0-1.25-1.2 4.395 4.395 0 0 0-2.56-.781 6.782 6.782 0 0 0-2.079.409 6.019 6.019 0 0 1-1.719.409 7.732 7.732 0 0 1-1.659-.361 8 8 0 0 0-2.127-.361 4.149 4.149 0 0 0-3.413 1.731 7.131 7.131 0 0 0-1.358 4.5 12.322 12.322 0 0 0 1.767 6.046q1.791 3.113 3.618 3.113a4.345 4.345 0 0 0 1.586-.409 4.633 4.633 0 0 1 1.707-.4 5.315 5.315 0 0 1 1.815.384 5.557 5.557 0 0 0 1.683.384q1.538 0 3.089-2.356a11.6 11.6 0 0 0 1.478-3 3.656 3.656 0 0 1-1.9-1.522z" transform="translate(-38.692 -102.83)"/>
      <path d="M236.233 3.8a4.933 4.933 0 0 0 1.118-1.659A4.585 4.585 0 0 0 237.7.5c0-.032 0-.072-.006-.12s-.006-.088-.006-.12a1.15 1.15 0 0 1-.03-.132 1.115 1.115 0 0 0-.03-.132 4.791 4.791 0 0 0-3 1.779 5.482 5.482 0 0 0-.937 3.089 6.717 6.717 0 0 0 1.25-.2 3.406 3.406 0 0 0 1.292-.864z" transform="translate(-225.476)"/>
    </g>
  </g>
</svg>
